<?xml version="1.0" encoding="utf-8"?>
<!-- Generator: Adobe Illustrator 24.1.0, SVG Export Plug-In . SVG Version: 6.00 Build 0)  -->
<svg version="1.1" id="Capa_1" xmlns="http://www.w3.org/2000/svg" xmlns:xlink="http://www.w3.org/1999/xlink" x="0px" y="0px"
	 width="569px" height="91px" viewBox="0 0 569 91" style="enable-background:new 0 0 569 91;" xml:space="preserve">
<style type="text/css">
	.st0{fill:#1D1D1B;}
</style>
<g>
	<path class="st0" d="M78.6,84.9L52.9,2.3H27.2L0.8,89h20.3l6.1-22.3h24.9L58.8,89h19.8h1.3h18.3V2.3H78.6V84.9z M30,52.2l5.2-18.4
		c1.4-5,2.7-11.6,4-16.7h0.3c1.3,5.1,2.9,11.6,4.4,16.7l5.4,18.4H30z"/>
	<path class="st0" d="M185.4,52.4h31.9V36.4h-31.9V18.4h33.8V2.3h-53.4v81c-1.5-5.1-3.2-12.2-5-18.7c-2.2-8-5.6-13.7-11.6-16.1V48
		c7.5-2.7,15.3-10.3,15.3-21.3c0-8-2.8-14.1-8-18.2c-6.2-4.9-15.2-6.9-28.1-6.9c-10.4,0-19.8,0.8-26.1,1.9V89h19.4V55h5.8
		c8.1,0.1,11.7,3,14.1,13.8c2.5,10.7,4.6,17.7,6,20.2h18.1h2h53.3V73h-35.7V52.4z M129.5,40.8h-7.7V16.9c1.4-0.4,4.1-0.7,8.8-0.7
		c9,0.1,14.4,4.1,14.4,12C145.1,35.8,139.2,40.8,129.5,40.8z"/>
	<path class="st0" d="M526.5,0.9c-18.9,0-32.9,10.6-39,26.7c0-0.3,0-0.6,0-0.9c0-8-2.8-14.1-8-18.2c-6.2-4.9-15.2-6.9-28.1-6.9
		c-9.2,0-17.5,0.6-23.6,1.5V2.3H311.4v81c-1.5-5.1-3.2-12.2-5-18.7c-2.2-8-5.6-13.7-11.6-16.1V48c7.5-2.7,15.3-10.3,15.3-21.3
		c0-8-2.8-14.1-8-18.2c-6.2-4.9-15.2-6.9-28.1-6.9c-10.4,0-19.8,0.8-26.1,1.9V89h19.4V55h5.8c8.1,0.1,11.7,3,14.1,13.8
		c2.5,10.7,4.6,17.7,6,20.2h18.1h2h53.3V73H331V52.4h31.9V36.4H331V18.4h53.6V89h19.6V18.4h21.3V89h19.4V55h5.8
		c8.1,0.1,11.7,3,14.1,13.8c2.5,10.7,4.6,17.7,6,20.2h20.1c-1.7-3.4-4.3-14.7-7-24.5c-2.2-8-5.6-13.7-11.6-16.1V48
		c4.9-1.7,9.9-5.6,12.8-11.1c-0.5,3-0.8,6.1-0.8,9.4c0,24.7,15.1,44.2,40.8,44.2c25.4,0,42.5-17.2,42.5-45.6
		C567.7,20.8,553.2,0.9,526.5,0.9z M275,40.8h-7.7V16.9c1.4-0.4,4.1-0.7,8.8-0.7c9,0.1,14.4,4.1,14.4,12
		C290.6,35.8,284.8,40.8,275,40.8z M452.6,40.8h-7.7V16.9c1.4-0.4,4.1-0.7,8.8-0.7c9,0.1,14.4,4.1,14.4,12
		C468.1,35.8,462.3,40.8,452.6,40.8z M526.1,74.9c-13.1,0-21.1-12-21.1-29c0-16.9,7.8-29.4,21-29.4c13.5,0,20.9,13.3,20.9,29
		C547,62.3,539.4,74.9,526.1,74.9z"/>
</g>
<g>
</g>
<g>
</g>
<g>
</g>
<g>
</g>
<g>
</g>
<g>
</g>
<g>
</g>
<g>
</g>
<g>
</g>
<g>
</g>
<g>
</g>
<g>
</g>
<g>
</g>
<g>
</g>
<g>
</g>
</svg>
